# xmcd
#
# Track frame offsets:
#	150
#	20332
#	37692
#	52442
#	68939
#	85814
#	102941
#	118945
#	133322
#	151773
#	171955
#	189315
#	204065
#	220562
#	237437
#	254564
#	270568
#	284945
#
# Disc length: 4045
#
# Revision: 1
# Processed by: cddbd v1.5.2PL0 Copyright (c) Steve Scherf et al.
# Submitted via: kJams Pro (development) 1.0patch45.9
#
DISCID=0a0fcb12
DTITLE=Various Artist - NSC 3018
DYEAR=1995
DGENRE=Country
TTITLE0=Brooks and Dunn - Only In America
TTITLE1=Dixie Chicks - Heartbreak Town
TTITLE2=Martina McBride - When Dog Fearin' Women Get The Blues
TTITLE3=Travis Tritt - Love Of A Woman
TTITLE4=Phil Vassar - Six Pack Summer
TTITLE5=Chely Wright - Never Love You Enough
TTITLE6=Trick Pony - On A Night Like This
TTITLE7=Andy Griggs - How Cool Is That
TTITLE8=Warren Brothers - Where  Does  It Hurt
TTITLE9=Brooks and Dunn - Vocals - Only In America
TTITLE10=Dixie Chicks - Vocals - Heartbreak Town
TTITLE11=Martina McBride - Vocals - When Dog Fearin' Women Get The Blues
TTITLE12=Travis Tritt - Vocals - Love Of A Woman
TTITLE13=Phil Vassar - Vocals - Six Pack Summer
TTITLE14=Chely Wright - Vocals - Never Love You Enough
TTITLE15=Trick Pony - Vocals - On A Night Like This
TTITLE16=Andy Griggs - Vocals - How Cool Is That
TTITLE17=Warren Brothers - Vocals - Where Does It Hurt
EXTD=
EXTT0=
EXTT1=
EXTT2=
EXTT3=
EXTT4=
EXTT5=
EXTT6=
EXTT7=
EXTT8=
EXTT9=
EXTT10=
EXTT11=
EXTT12=
EXTT13=
EXTT14=
EXTT15=
EXTT16=
EXTT17=
PLAYORDER=
